PathFileType  4	(X/Y/Z) C:\Users\antoi\Documents\MyRepositories\mobilecap\ResultsAnalysis
DataRate	CameraRate	NumFrames	NumMarkers	Units	OrigDataRate	OrigDataStartFrame	OrigNumFrames
100.0	100.0	4	51	mm	100.0	39	306
Frame#	Time	r_knee			r_shank_antsup			r_ankle			r_calc			r_5meta			r_toe			L_knee			L_shank_antsup			L_ankle			L_calc			L_5meta			L_toe			r_sh2			r_sh3			r_sh4			L_sh2			L_sh3			r_thigh1			r_thigh2			r_thigh3			r_thigh4			r_thigh5			L_thigh1			L_thigh2			L_thigh3			L_thigh4			r.ASIS			r.PSIS			L.ASIS			L.PSIS			C7			R_Shoulder			L_Shoulder			R_Sternum			L_Sternum			R_humerus			R_elbow_med			R_elbow_lat			R_forearm			R_wrist_radius			R_wrist_ulna			L_humerus			L_elbow_med			L_elbow_lat			L_forearm			L_wrist_radius			L_wrist_ulna			R_HJC			L_HJC			R_HJC_reg			L_HJC_reg			
		X1	Y1	Z1	X2	Y2	Z2	X3	Y3	Z3	X4	Y4	Z4	X5	Y5	Z5	X6	Y6	Z6	X7	Y7	Z7	X8	Y8	Z8	X9	Y9	Z9	X10	Y10	Z10	X11	Y11	Z11	X12	Y12	Z12	X13	Y13	Z13	X14	Y14	Z14	X15	Y15	Z15	X16	Y16	Z16	X17	Y17	Z17	X18	Y18	Z18	X19	Y19	Z19	X20	Y20	Z20	X21	Y21	Z21	X22	Y22	Z22	X23	Y23	Z23	X24	Y24	Z24	X25	Y25	Z25	X26	Y26	Z26	X27	Y27	Z27	X28	Y28	Z28	X29	Y29	Z29	X30	Y30	Z30	X31	Y31	Z31	X32	Y32	Z32	X33	Y33	Z33	X34	Y34	Z34	X35	Y35	Z35	X36	Y36	Z36	X37	Y37	Z37	X38	Y38	Z38	X39	Y39	Z39	X40	Y40	Z40	X41	Y41	Z41	X42	Y42	Z42	X43	Y43	Z43	X44	Y44	Z44	X45	Y45	Z45	X46	Y46	Z46	X47	Y47	Z47	X48	Y48	Z48	X49	Y49	Z49	X50	Y50	Z50	X51	Y51	Z51	

39	0.38000000	-1198.87947	779.12724	-417.73120	-1167.12758	658.87286	-434.50676	-1257.91413	399.06170	-452.69348	-1304.02555	357.31911	-506.71773	-1143.71009	349.72300	-419.95462	-1107.48210	369.46394	-463.03412	-1184.57325	781.62143	-736.08170	-1152.08096	671.14285	-694.25713	-1260.15022	396.09683	-723.61564	-1307.44587	360.53191	-685.67291	-1140.84838	347.00679	-743.45649	-1103.91518	367.05893	-689.23189	-1187.96335	549.76732	-448.49016	-1224.58037	662.54684	-384.20020	-1260.08051	560.02559	-407.50224	-1197.69957	700.25696	-764.00457	-1221.13068	581.02054	-777.84670	-1130.27595	1082.42895	-421.69286	-1119.90189	973.62458	-420.61377	-1161.75965	944.31998	-377.21734	-1230.91962	1072.02202	-375.95955	-1216.77395	955.97280	-373.57871	-1142.85046	1075.14994	-746.59447	-1116.69788	937.11935	-742.61878	-1248.87200	1061.92100	-780.30003	-1225.05878	921.72663	-768.39104	-1116.20316	1236.47879	-455.77992	-1294.57043	1303.37274	-521.91793	-1115.91835	1236.87036	-701.43964	-1297.46377	1305.24408	-639.75190	-1222.26930	1757.94876	-569.20283	-1176.39340	1716.31859	-417.62905	-1169.72712	1727.38247	-725.88651	-1108.92095	1688.45575	-547.64948	-1107.16167	1685.36487	-589.49311	-1174.00546	1588.91830	-350.65563	-1282.22730	1407.04455	-397.05763	-1251.30664	1409.77034	-327.15687	-1215.63880	1287.42602	-310.52880	-1198.02981	1184.47091	-311.91351	-1231.80456	1182.43628	-293.38698	-1172.33899	1578.00164	-795.50437	-1273.06496	1404.58530	-738.07676	-1254.75767	1411.11864	-814.63528	-1221.79479	1320.03201	-844.14502	-1202.29159	1187.81350	-845.12421	-1232.30495	1188.02563	-860.53998	-1215.82250	1177.64683	-481.81503	-1212.08793	1174.29467	-671.12624	-1195.92292	1175.54444	-489.21389	-1199.90233	1178.11826	-651.28068	
40	0.39000000	-1198.03616	778.92220	-417.88501	-1166.39325	658.60380	-434.54970	-1257.99964	399.04973	-452.71178	-1304.08192	357.29066	-506.77011	-1143.77073	349.82059	-420.04464	-1107.55180	369.73366	-463.10308	-1183.37122	781.53632	-735.49761	-1151.33630	670.81201	-694.09138	-1260.12475	396.12527	-723.63058	-1307.47055	360.55154	-685.73063	-1140.85735	347.01802	-743.45547	-1103.89929	367.09735	-689.23173	-1187.54679	549.60383	-448.59307	-1223.82458	662.52875	-384.30495	-1259.11732	558.74753	-407.80248	-1197.13027	700.15266	-764.00556	-1220.70924	581.00282	-777.53899	-1130.23050	1082.38424	-421.74772	-1119.57988	973.68860	-420.44072	-1161.40902	944.21997	-377.35164	-1230.70355	1071.87780	-376.53357	-1216.29360	955.69442	-373.74336	-1142.05349	1074.95869	-747.24899	-1116.24205	937.10042	-742.63798	-1247.91411	1061.87925	-779.96968	-1224.61348	921.34892	-768.32471	-1116.18345	1236.06671	-455.64749	-1294.33075	1303.50377	-521.80294	-1115.55340	1236.31123	-701.36807	-1297.20830	1305.36941	-639.68671	-1219.71749	1757.76499	-569.01515	-1173.98182	1715.99339	-417.59348	-1167.03896	1727.22207	-725.77589	-1106.64933	1687.75835	-547.39968	-1104.84301	1684.74707	-589.27854	-1172.63991	1588.70523	-350.28013	-1282.37589	1407.81424	-396.74047	-1251.69408	1410.34440	-326.72732	-1217.45395	1287.65735	-309.86075	-1201.12291	1184.51476	-310.74641	-1234.93048	1182.88259	-292.37195	-1171.28015	1577.96275	-795.70612	-1273.49811	1405.59346	-737.96649	-1255.64094	1412.09491	-814.63638	-1224.04099	1320.63060	-844.55376	-1207.53067	1188.41851	-845.83226	-1236.35155	1188.85435	-861.69851	-1215.94818	1177.52791	-481.69727	-1212.11098	1174.10801	-671.00530	-1195.97155	1175.31543	-489.09038	-1199.92860	1177.88105	-651.19790	
41	0.40000000	-1197.07426	778.58625	-418.12858	-1165.55331	658.32948	-434.53845	-1257.90539	399.20231	-452.65439	-1304.12937	357.27922	-506.83750	-1143.83208	349.94922	-420.10128	-1107.63824	369.95237	-463.08498	-1182.13255	781.09521	-735.17689	-1150.56550	670.44287	-693.88277	-1260.08313	396.14592	-723.65370	-1307.47633	360.57960	-685.77774	-1140.85848	347.03148	-743.45162	-1103.91870	367.12332	-689.25389	-1187.08714	549.40269	-448.72082	-1222.97622	662.44554	-384.37235	-1258.41464	557.98205	-408.00420	-1196.56989	699.96832	-763.92610	-1220.28419	580.97604	-777.29142	-1130.18853	1082.36606	-421.82227	-1119.16126	973.77170	-420.41056	-1160.98128	944.08767	-377.48237	-1230.66608	1071.74076	-376.68074	-1215.81188	955.35610	-373.91015	-1140.67423	1074.68107	-748.35874	-1115.72947	937.07090	-742.43800	-1246.51987	1061.89590	-780.41117	-1223.98636	920.76156	-768.03032	-1116.21466	1235.66666	-455.55248	-1294.06412	1303.62081	-521.63546	-1115.48670	1235.79667	-701.32253	-1296.94574	1305.48073	-639.70173	-1217.14627	1757.56499	-568.84244	-1171.44026	1715.63079	-417.45888	-1164.32195	1726.86712	-725.61686	-1104.27594	1687.02475	-547.24331	-1102.46819	1683.93023	-589.27406	-1171.27407	1588.37256	-350.05839	-1282.56639	1408.56644	-396.44174	-1252.00966	1410.92192	-326.36478	-1219.25659	1287.90086	-309.14970	-1204.19822	1184.60723	-309.63178	-1238.00913	1183.41064	-291.35492	-1170.21332	1577.89148	-795.88330	-1273.77995	1406.51610	-737.89344	-1256.47594	1413.09747	-814.68097	-1226.26911	1321.34208	-845.14377	-1211.70114	1188.96757	-847.11990	-1240.61119	1189.83274	-862.56953	-1216.11693	1177.42045	-481.59570	-1212.27245	1173.92852	-670.90228	-1196.13992	1175.10778	-488.99114	-1200.09724	1177.66207	-651.13162	
42	0.41000000	-1195.98051	778.32439	-418.32396	-1164.61354	658.06936	-434.63631	-1257.81631	399.31552	-452.69325	-1304.15596	357.26380	-506.84182	-1143.89970	350.09003	-420.12101	-1107.69803	370.08923	-463.06422	-1181.08513	780.61062	-735.19721	-1149.82392	670.11734	-693.68742	-1260.02287	396.17192	-723.66847	-1307.47347	360.61613	-685.83760	-1140.85886	347.03439	-743.44887	-1103.96135	367.12359	-689.25183	-1186.58515	549.13916	-448.81776	-1222.00240	662.26945	-384.53799	-1258.17428	558.54302	-407.95924	-1195.84704	699.66006	-763.69472	-1219.90073	580.95662	-777.27814	-1130.16865	1082.35704	-421.82657	-1118.77845	973.71315	-420.83088	-1160.46737	943.91564	-377.60388	-1230.94057	1071.54839	-375.95036	-1215.37897	954.99149	-373.97182	-1139.79794	1074.57564	-748.91492	-1115.21073	937.05819	-742.21482	-1245.85307	1061.60426	-780.68954	-1223.35260	920.26522	-767.63155	-1116.26367	1235.26218	-455.48293	-1293.78887	1303.76002	-521.62377	-1115.48318	1235.24864	-701.40504	-1296.67089	1305.56641	-639.77219	-1214.42060	1757.24491	-568.69712	-1168.81556	1715.21671	-417.25585	-1161.64847	1726.42822	-725.52780	-1101.71395	1686.22660	-547.12270	-1099.96373	1683.03985	-589.44879	-1169.92204	1588.01047	-349.92442	-1282.75609	1409.33720	-396.09548	-1252.32170	1411.53294	-325.96113	-1221.08067	1288.11379	-308.36650	-1207.30871	1184.78870	-308.46449	-1241.10543	1184.01571	-290.28608	-1169.09277	1577.72812	-796.04510	-1273.88538	1407.28105	-737.86174	-1257.24130	1414.04575	-814.77817	-1228.42698	1322.07115	-845.93831	-1215.58045	1189.36553	-848.22903	-1244.84177	1190.98296	-863.55050	-1216.31270	1177.32621	-481.56571	-1212.47016	1173.72173	-670.87018	-1196.36854	1174.90960	-488.91178	-1200.32608	1177.39003	-651.15402	
